<mxfile host="app.diagrams.net" modified="2021-03-03T08:08:28.873Z" agent="5.0 (Macintosh; Intel Mac OS X 11_2_0) AppleWebKit/537.36 (KHTML, like Gecko) Chrome/88.0.4324.192 Safari/537.36" etag="EgaDC-i2EZJqnnsbi_5Q" version="14.4.3" type="github">
  <diagram id="C5RBs43oDa-KdzZeNtuy" name="Page-1">
    <mxGraphModel dx="1188" dy="554" grid="1" gridSize="10" guides="1" tooltips="1" connect="1" arrows="1" fold="1" page="1" pageScale="1" pageWidth="827" pageHeight="1169" math="0" shadow="0">
      <root>
        <mxCell id="WIyWlLk6GJQsqaUBKTNV-0" />
        <mxCell id="WIyWlLk6GJQsqaUBKTNV-1" parent="WIyWlLk6GJQsqaUBKTNV-0" />
        <mxCell id="4mUoT94FO_jnOTSp1moc-0" value="网络攻防博弈&#xa;模拟场景选择" style="rounded=1;" parent="WIyWlLk6GJQsqaUBKTNV-1" vertex="1">
          <mxGeometry x="340" y="70" width="120" height="50" as="geometry" />
        </mxCell>
        <mxCell id="4mUoT94FO_jnOTSp1moc-1" value="静态防御博弈" style="rounded=0;" parent="WIyWlLk6GJQsqaUBKTNV-1" vertex="1">
          <mxGeometry x="220" y="160" width="90" height="40" as="geometry" />
        </mxCell>
        <mxCell id="4mUoT94FO_jnOTSp1moc-2" value="策略博弈" style="rounded=0;" parent="WIyWlLk6GJQsqaUBKTNV-1" vertex="1">
          <mxGeometry x="355" y="160" width="90" height="40" as="geometry" />
        </mxCell>
        <mxCell id="4mUoT94FO_jnOTSp1moc-3" value="特种网络&#xa;环境博弈" style="rounded=0;" parent="WIyWlLk6GJQsqaUBKTNV-1" vertex="1">
          <mxGeometry x="520" y="160" width="90" height="40" as="geometry" />
        </mxCell>
        <mxCell id="4mUoT94FO_jnOTSp1moc-4" value="" style="endArrow=none;dashed=1;dashPattern=1 3;strokeWidth=2;" parent="WIyWlLk6GJQsqaUBKTNV-1" edge="1">
          <mxGeometry width="50" height="50" relative="1" as="geometry">
            <mxPoint x="470" y="180" as="sourcePoint" />
            <mxPoint x="500" y="180" as="targetPoint" />
          </mxGeometry>
        </mxCell>
        <mxCell id="4mUoT94FO_jnOTSp1moc-5" value="" style="endArrow=classic;exitX=0.5;exitY=1;exitDx=0;exitDy=0;entryX=0.5;entryY=0;entryDx=0;entryDy=0;" parent="WIyWlLk6GJQsqaUBKTNV-1" source="4mUoT94FO_jnOTSp1moc-0" target="4mUoT94FO_jnOTSp1moc-2" edge="1">
          <mxGeometry width="50" height="50" relative="1" as="geometry">
            <mxPoint x="310" y="310" as="sourcePoint" />
            <mxPoint x="360" y="260" as="targetPoint" />
          </mxGeometry>
        </mxCell>
        <mxCell id="4mUoT94FO_jnOTSp1moc-6" value="" style="endArrow=classic;exitX=0.5;exitY=1;exitDx=0;exitDy=0;entryX=0.5;entryY=0;entryDx=0;entryDy=0;" parent="WIyWlLk6GJQsqaUBKTNV-1" source="4mUoT94FO_jnOTSp1moc-0" target="4mUoT94FO_jnOTSp1moc-1" edge="1">
          <mxGeometry width="50" height="50" relative="1" as="geometry">
            <mxPoint x="410" y="130" as="sourcePoint" />
            <mxPoint x="410" y="170" as="targetPoint" />
            <Array as="points">
              <mxPoint x="400" y="140" />
              <mxPoint x="265" y="140" />
            </Array>
          </mxGeometry>
        </mxCell>
        <mxCell id="4mUoT94FO_jnOTSp1moc-7" value="" style="endArrow=classic;exitX=0.5;exitY=1;exitDx=0;exitDy=0;entryX=0.5;entryY=0;entryDx=0;entryDy=0;" parent="WIyWlLk6GJQsqaUBKTNV-1" source="4mUoT94FO_jnOTSp1moc-0" target="4mUoT94FO_jnOTSp1moc-3" edge="1">
          <mxGeometry width="50" height="50" relative="1" as="geometry">
            <mxPoint x="420" y="140" as="sourcePoint" />
            <mxPoint x="420" y="180" as="targetPoint" />
            <Array as="points">
              <mxPoint x="400" y="140" />
              <mxPoint x="565" y="140" />
            </Array>
          </mxGeometry>
        </mxCell>
        <mxCell id="4mUoT94FO_jnOTSp1moc-9" value="算法模型库" style="shape=cylinder3;boundedLbl=1;backgroundOutline=1;size=15;" parent="WIyWlLk6GJQsqaUBKTNV-1" vertex="1">
          <mxGeometry x="360" y="250" width="80" height="60" as="geometry" />
        </mxCell>
        <mxCell id="4mUoT94FO_jnOTSp1moc-10" value="" style="endArrow=classic;exitX=0.5;exitY=1;exitDx=0;exitDy=0;entryX=0.5;entryY=0;entryDx=0;entryDy=0;entryPerimeter=0;" parent="WIyWlLk6GJQsqaUBKTNV-1" source="4mUoT94FO_jnOTSp1moc-1" target="4mUoT94FO_jnOTSp1moc-9" edge="1">
          <mxGeometry width="50" height="50" relative="1" as="geometry">
            <mxPoint x="430" y="150" as="sourcePoint" />
            <mxPoint x="430" y="190" as="targetPoint" />
            <Array as="points">
              <mxPoint x="265" y="230" />
              <mxPoint x="400" y="230" />
            </Array>
          </mxGeometry>
        </mxCell>
        <mxCell id="4mUoT94FO_jnOTSp1moc-11" value="" style="endArrow=classic;exitX=0.5;exitY=1;exitDx=0;exitDy=0;entryX=0.5;entryY=0;entryDx=0;entryDy=0;entryPerimeter=0;" parent="WIyWlLk6GJQsqaUBKTNV-1" source="4mUoT94FO_jnOTSp1moc-2" target="4mUoT94FO_jnOTSp1moc-9" edge="1">
          <mxGeometry width="50" height="50" relative="1" as="geometry">
            <mxPoint x="440" y="160" as="sourcePoint" />
            <mxPoint x="440" y="200" as="targetPoint" />
          </mxGeometry>
        </mxCell>
        <mxCell id="4mUoT94FO_jnOTSp1moc-12" value="" style="endArrow=classic;exitX=0.5;exitY=1;exitDx=0;exitDy=0;entryX=0.5;entryY=0;entryDx=0;entryDy=0;entryPerimeter=0;" parent="WIyWlLk6GJQsqaUBKTNV-1" source="4mUoT94FO_jnOTSp1moc-3" target="4mUoT94FO_jnOTSp1moc-9" edge="1">
          <mxGeometry width="50" height="50" relative="1" as="geometry">
            <mxPoint x="450" y="170" as="sourcePoint" />
            <mxPoint x="450" y="210" as="targetPoint" />
            <Array as="points">
              <mxPoint x="565" y="230" />
              <mxPoint x="400" y="230" />
            </Array>
          </mxGeometry>
        </mxCell>
        <mxCell id="4mUoT94FO_jnOTSp1moc-13" value="仿真训练" style="rounded=0;" parent="WIyWlLk6GJQsqaUBKTNV-1" vertex="1">
          <mxGeometry x="520" y="260" width="80" height="40" as="geometry" />
        </mxCell>
        <mxCell id="4mUoT94FO_jnOTSp1moc-14" value="" style="endArrow=classic;exitX=1;exitY=0.5;exitDx=0;exitDy=0;exitPerimeter=0;entryX=0;entryY=0.5;entryDx=0;entryDy=0;" parent="WIyWlLk6GJQsqaUBKTNV-1" source="4mUoT94FO_jnOTSp1moc-9" target="4mUoT94FO_jnOTSp1moc-13" edge="1">
          <mxGeometry width="50" height="50" relative="1" as="geometry">
            <mxPoint x="450" y="360" as="sourcePoint" />
            <mxPoint x="500" y="310" as="targetPoint" />
          </mxGeometry>
        </mxCell>
        <mxCell id="4mUoT94FO_jnOTSp1moc-15" value="" style="endArrow=classic;exitX=0.5;exitY=1;exitDx=0;exitDy=0;exitPerimeter=0;entryX=0.5;entryY=0;entryDx=0;entryDy=0;" parent="WIyWlLk6GJQsqaUBKTNV-1" source="4mUoT94FO_jnOTSp1moc-9" target="4mUoT94FO_jnOTSp1moc-16" edge="1">
          <mxGeometry width="50" height="50" relative="1" as="geometry">
            <mxPoint x="320" y="430" as="sourcePoint" />
            <mxPoint x="400" y="350" as="targetPoint" />
          </mxGeometry>
        </mxCell>
        <mxCell id="4mUoT94FO_jnOTSp1moc-16" value="" style="shape=internalStorage;backgroundOutline=1;dx=10;dy=10;" parent="WIyWlLk6GJQsqaUBKTNV-1" vertex="1">
          <mxGeometry x="185" y="360" width="430" height="80" as="geometry" />
        </mxCell>
        <mxCell id="4mUoT94FO_jnOTSp1moc-18" value="收敛性" style="shape=document;boundedLbl=1;" parent="WIyWlLk6GJQsqaUBKTNV-1" vertex="1">
          <mxGeometry x="230" y="390" width="60" height="40" as="geometry" />
        </mxCell>
        <mxCell id="4mUoT94FO_jnOTSp1moc-19" value="通用性" style="shape=document;boundedLbl=1;" parent="WIyWlLk6GJQsqaUBKTNV-1" vertex="1">
          <mxGeometry x="310" y="390" width="60" height="40" as="geometry" />
        </mxCell>
        <mxCell id="4mUoT94FO_jnOTSp1moc-20" value="适用性" style="shape=document;boundedLbl=1;" parent="WIyWlLk6GJQsqaUBKTNV-1" vertex="1">
          <mxGeometry x="384" y="390" width="60" height="40" as="geometry" />
        </mxCell>
        <mxCell id="4mUoT94FO_jnOTSp1moc-21" value="" style="endArrow=none;dashed=1;dashPattern=1 3;strokeWidth=2;" parent="WIyWlLk6GJQsqaUBKTNV-1" edge="1">
          <mxGeometry width="50" height="50" relative="1" as="geometry">
            <mxPoint x="460" y="409.76" as="sourcePoint" />
            <mxPoint x="490" y="409.76" as="targetPoint" />
          </mxGeometry>
        </mxCell>
        <mxCell id="4mUoT94FO_jnOTSp1moc-22" value="实验对照" style="shape=document;boundedLbl=1;" parent="WIyWlLk6GJQsqaUBKTNV-1" vertex="1">
          <mxGeometry x="500" y="390" width="60" height="40" as="geometry" />
        </mxCell>
        <mxCell id="4mUoT94FO_jnOTSp1moc-23" value="评估指标" style="text;strokeColor=none;fillColor=none;align=center;verticalAlign=middle;rounded=0;" parent="WIyWlLk6GJQsqaUBKTNV-1" vertex="1">
          <mxGeometry x="200" y="370" width="50" height="20" as="geometry" />
        </mxCell>
        <mxCell id="3iNz1NNIsn3qa7pPF692-1" value="GUI交互" style="rounded=0;" vertex="1" parent="WIyWlLk6GJQsqaUBKTNV-1">
          <mxGeometry x="200" y="260" width="90" height="40" as="geometry" />
        </mxCell>
        <mxCell id="3iNz1NNIsn3qa7pPF692-2" value="" style="endArrow=classic;exitX=0.5;exitY=1;exitDx=0;exitDy=0;entryX=0.5;entryY=0;entryDx=0;entryDy=0;" edge="1" parent="WIyWlLk6GJQsqaUBKTNV-1" source="3iNz1NNIsn3qa7pPF692-1" target="4mUoT94FO_jnOTSp1moc-16">
          <mxGeometry width="50" height="50" relative="1" as="geometry">
            <mxPoint x="200" y="360" as="sourcePoint" />
            <mxPoint x="250" y="310" as="targetPoint" />
            <Array as="points">
              <mxPoint x="245" y="330" />
              <mxPoint x="400" y="330" />
            </Array>
          </mxGeometry>
        </mxCell>
        <mxCell id="3iNz1NNIsn3qa7pPF692-3" value="更&#xa;新&#xa;数&#xa;据" style="endArrow=classic;exitX=1;exitY=0.5;exitDx=0;exitDy=0;entryX=1;entryY=0.5;entryDx=0;entryDy=0;" edge="1" parent="WIyWlLk6GJQsqaUBKTNV-1" source="4mUoT94FO_jnOTSp1moc-13" target="4mUoT94FO_jnOTSp1moc-16">
          <mxGeometry x="0.0732" y="10" width="50" height="50" relative="1" as="geometry">
            <mxPoint x="620" y="330" as="sourcePoint" />
            <mxPoint x="670" y="280" as="targetPoint" />
            <Array as="points">
              <mxPoint x="650" y="280" />
              <mxPoint x="650" y="400" />
            </Array>
            <mxPoint as="offset" />
          </mxGeometry>
        </mxCell>
      </root>
    </mxGraphModel>
  </diagram>
</mxfile>
